<?xml version="1.0" encoding="UTF-8" standalone="no"?>
<!DOCTYPE svg PUBLIC "-//W3C//DTD SVG 1.1//EN"
 "http://www.w3.org/Graphics/SVG/1.1/DTD/svg11.dtd">
<!-- Generated by graphviz version 2.43.0 (0)
 -->
<!-- Title: %3 Pages: 1 -->
<svg width="3345pt" height="836pt"
 viewBox="0.00 0.00 3345.36 836.00" xmlns="http://www.w3.org/2000/svg" xmlns:xlink="http://www.w3.org/1999/xlink">
<g id="graph0" class="graph" transform="scale(1 1) rotate(0) translate(4 832)">
<title>%3</title>
<polygon fill="white" stroke="transparent" points="-4,4 -4,-832 3341.36,-832 3341.36,4 -4,4"/>
<!-- [root] aws_api_gateway_api_key.visitor_api_key (expand) -->
<g id="node1" class="node">
<title>[root] aws_api_gateway_api_key.visitor_api_key (expand)</title>
<polygon fill="none" stroke="black" points="2089,-396 1781,-396 1781,-360 2089,-360 2089,-396"/>
<text text-anchor="middle" x="1935" y="-374.3" font-family="Times,serif" font-size="14.00">aws_api_gateway_api_key.visitor_api_key</text>
</g>
<!-- [root] provider[&quot;registry.terraform.io/hashicorp/aws&quot;] -->
<g id="node26" class="node">
<title>[root] provider[&quot;registry.terraform.io/hashicorp/aws&quot;]</title>
<polygon fill="none" stroke="black" points="1434,-36 1108.74,-18 1434,0 1759.26,-18 1434,-36"/>
<text text-anchor="middle" x="1434" y="-14.3" font-family="Times,serif" font-size="14.00">provider[&quot;registry.terraform.io/hashicorp/aws&quot;]</text>
</g>
<!-- [root] aws_api_gateway_api_key.visitor_api_key (expand)&#45;&gt;[root] provider[&quot;registry.terraform.io/hashicorp/aws&quot;] -->
<g id="edge1" class="edge">
<title>[root] aws_api_gateway_api_key.visitor_api_key (expand)&#45;&gt;[root] provider[&quot;registry.terraform.io/hashicorp/aws&quot;]</title>
<path fill="none" stroke="black" d="M2006.83,-359.95C2026.6,-352.02 2046.35,-340.54 2060,-324 2085.75,-292.81 2079,-275.45 2079,-235 2079,-235 2079,-235 2079,-161 2079,-70.18 1832.01,-37.39 1643.71,-25.58"/>
<polygon fill="black" stroke="black" points="1643.86,-22.08 1633.66,-24.97 1643.43,-29.07 1643.86,-22.08"/>
</g>
<!-- [root] aws_api_gateway_deployment.visitor_api_deployment (expand) -->
<g id="node2" class="node">
<title>[root] aws_api_gateway_deployment.visitor_api_deployment (expand)</title>
<polygon fill="none" stroke="black" points="1714,-468 1314,-468 1314,-432 1714,-432 1714,-468"/>
<text text-anchor="middle" x="1514" y="-446.3" font-family="Times,serif" font-size="14.00">aws_api_gateway_deployment.visitor_api_deployment</text>
</g>
<!-- [root] aws_api_gateway_integration_response.VisitorIntegrationResponse (expand) -->
<g id="node5" class="node">
<title>[root] aws_api_gateway_integration_response.VisitorIntegrationResponse (expand)</title>
<polygon fill="none" stroke="black" points="1762.5,-396 1265.5,-396 1265.5,-360 1762.5,-360 1762.5,-396"/>
<text text-anchor="middle" x="1514" y="-374.3" font-family="Times,serif" font-size="14.00">aws_api_gateway_integration_response.VisitorIntegrationResponse</text>
</g>
<!-- [root] aws_api_gateway_deployment.visitor_api_deployment (expand)&#45;&gt;[root] aws_api_gateway_integration_response.VisitorIntegrationResponse (expand) -->
<g id="edge2" class="edge">
<title>[root] aws_api_gateway_deployment.visitor_api_deployment (expand)&#45;&gt;[root] aws_api_gateway_integration_response.VisitorIntegrationResponse (expand)</title>
<path fill="none" stroke="black" d="M1514,-431.7C1514,-423.98 1514,-414.71 1514,-406.11"/>
<polygon fill="black" stroke="black" points="1517.5,-406.1 1514,-396.1 1510.5,-406.1 1517.5,-406.1"/>
</g>
<!-- [root] aws_api_gateway_integration.lambda_visitor_integration (expand) -->
<g id="node3" class="node">
<title>[root] aws_api_gateway_integration.lambda_visitor_integration (expand)</title>
<polygon fill="none" stroke="black" points="1598,-324 1176,-324 1176,-288 1598,-288 1598,-324"/>
<text text-anchor="middle" x="1387" y="-302.3" font-family="Times,serif" font-size="14.00">aws_api_gateway_integration.lambda_visitor_integration</text>
</g>
<!-- [root] aws_api_gateway_method.increment_visitors_method (expand) -->
<g id="node7" class="node">
<title>[root] aws_api_gateway_method.increment_visitors_method (expand)</title>
<polygon fill="none" stroke="black" points="1875,-252 1477,-252 1477,-216 1875,-216 1875,-252"/>
<text text-anchor="middle" x="1676" y="-230.3" font-family="Times,serif" font-size="14.00">aws_api_gateway_method.increment_visitors_method</text>
</g>
<!-- [root] aws_api_gateway_integration.lambda_visitor_integration (expand)&#45;&gt;[root] aws_api_gateway_method.increment_visitors_method (expand) -->
<g id="edge3" class="edge">
<title>[root] aws_api_gateway_integration.lambda_visitor_integration (expand)&#45;&gt;[root] aws_api_gateway_method.increment_visitors_method (expand)</title>
<path fill="none" stroke="black" d="M1457.33,-287.97C1499.1,-277.85 1552.22,-264.98 1595.65,-254.46"/>
<polygon fill="black" stroke="black" points="1596.71,-257.81 1605.61,-252.05 1595.06,-251 1596.71,-257.81"/>
</g>
<!-- [root] aws_lambda_function.DynamoDBVisitorFunction (expand) -->
<g id="node21" class="node">
<title>[root] aws_lambda_function.DynamoDBVisitorFunction (expand)</title>
<polygon fill="none" stroke="black" points="1459,-252 1095,-252 1095,-216 1459,-216 1459,-252"/>
<text text-anchor="middle" x="1277" y="-230.3" font-family="Times,serif" font-size="14.00">aws_lambda_function.DynamoDBVisitorFunction</text>
</g>
<!-- [root] aws_api_gateway_integration.lambda_visitor_integration (expand)&#45;&gt;[root] aws_lambda_function.DynamoDBVisitorFunction (expand) -->
<g id="edge4" class="edge">
<title>[root] aws_api_gateway_integration.lambda_visitor_integration (expand)&#45;&gt;[root] aws_lambda_function.DynamoDBVisitorFunction (expand)</title>
<path fill="none" stroke="black" d="M1360.09,-287.88C1345.84,-278.81 1328.15,-267.55 1312.76,-257.76"/>
<polygon fill="black" stroke="black" points="1314.33,-254.61 1304.01,-252.19 1310.57,-260.51 1314.33,-254.61"/>
</g>
<!-- [root] aws_api_gateway_integration.options_integration (expand) -->
<g id="node4" class="node">
<title>[root] aws_api_gateway_integration.options_integration (expand)</title>
<polygon fill="none" stroke="black" points="1275.5,-684 906.5,-684 906.5,-648 1275.5,-648 1275.5,-684"/>
<text text-anchor="middle" x="1091" y="-662.3" font-family="Times,serif" font-size="14.00">aws_api_gateway_integration.options_integration</text>
</g>
<!-- [root] aws_api_gateway_method.options_method (expand) -->
<g id="node8" class="node">
<title>[root] aws_api_gateway_method.options_method (expand)</title>
<polygon fill="none" stroke="black" points="960,-540 642,-540 642,-504 960,-504 960,-540"/>
<text text-anchor="middle" x="801" y="-518.3" font-family="Times,serif" font-size="14.00">aws_api_gateway_method.options_method</text>
</g>
<!-- [root] aws_api_gateway_integration.options_integration (expand)&#45;&gt;[root] aws_api_gateway_method.options_method (expand) -->
<g id="edge5" class="edge">
<title>[root] aws_api_gateway_integration.options_integration (expand)&#45;&gt;[root] aws_api_gateway_method.options_method (expand)</title>
<path fill="none" stroke="black" d="M1056.02,-647.87C1003.22,-622.02 903.2,-573.04 845.36,-544.72"/>
<polygon fill="black" stroke="black" points="846.63,-541.44 836.1,-540.19 843.55,-547.73 846.63,-541.44"/>
</g>
<!-- [root] aws_api_gateway_integration_response.VisitorIntegrationResponse (expand)&#45;&gt;[root] aws_api_gateway_integration.lambda_visitor_integration (expand) -->
<g id="edge6" class="edge">
<title>[root] aws_api_gateway_integration_response.VisitorIntegrationResponse (expand)&#45;&gt;[root] aws_api_gateway_integration.lambda_visitor_integration (expand)</title>
<path fill="none" stroke="black" d="M1482.93,-359.88C1466.17,-350.64 1445.29,-339.13 1427.3,-329.21"/>
<polygon fill="black" stroke="black" points="1428.63,-325.95 1418.19,-324.19 1425.26,-332.08 1428.63,-325.95"/>
</g>
<!-- [root] aws_api_gateway_method_response.method_response_200 (expand) -->
<g id="node9" class="node">
<title>[root] aws_api_gateway_method_response.method_response_200 (expand)</title>
<polygon fill="none" stroke="black" points="2051.5,-324 1616.5,-324 1616.5,-288 2051.5,-288 2051.5,-324"/>
<text text-anchor="middle" x="1834" y="-302.3" font-family="Times,serif" font-size="14.00">aws_api_gateway_method_response.method_response_200</text>
</g>
<!-- [root] aws_api_gateway_integration_response.VisitorIntegrationResponse (expand)&#45;&gt;[root] aws_api_gateway_method_response.method_response_200 (expand) -->
<g id="edge7" class="edge">
<title>[root] aws_api_gateway_integration_response.VisitorIntegrationResponse (expand)&#45;&gt;[root] aws_api_gateway_method_response.method_response_200 (expand)</title>
<path fill="none" stroke="black" d="M1591.87,-359.97C1638.52,-349.76 1697.94,-336.76 1746.24,-326.2"/>
<polygon fill="black" stroke="black" points="1747.04,-329.61 1756.06,-324.05 1745.54,-322.77 1747.04,-329.61"/>
</g>
<!-- [root] aws_api_gateway_integration_response.options_integration_response (expand) -->
<g id="node6" class="node">
<title>[root] aws_api_gateway_integration_response.options_integration_response (expand)</title>
<polygon fill="none" stroke="black" points="888,-684 376,-684 376,-648 888,-648 888,-684"/>
<text text-anchor="middle" x="632" y="-662.3" font-family="Times,serif" font-size="14.00">aws_api_gateway_integration_response.options_integration_response</text>
</g>
<!-- [root] aws_api_gateway_method_response.options_200 (expand) -->
<g id="node10" class="node">
<title>[root] aws_api_gateway_method_response.options_200 (expand)</title>
<polygon fill="none" stroke="black" points="898,-612 536,-612 536,-576 898,-576 898,-612"/>
<text text-anchor="middle" x="717" y="-590.3" font-family="Times,serif" font-size="14.00">aws_api_gateway_method_response.options_200</text>
</g>
<!-- [root] aws_api_gateway_integration_response.options_integration_response (expand)&#45;&gt;[root] aws_api_gateway_method_response.options_200 (expand) -->
<g id="edge8" class="edge">
<title>[root] aws_api_gateway_integration_response.options_integration_response (expand)&#45;&gt;[root] aws_api_gateway_method_response.options_200 (expand)</title>
<path fill="none" stroke="black" d="M653.01,-647.7C663.72,-638.88 676.89,-628.03 688.5,-618.47"/>
<polygon fill="black" stroke="black" points="690.74,-621.16 696.23,-612.1 686.29,-615.76 690.74,-621.16"/>
</g>
<!-- [root] aws_api_gateway_resource.cors_resource (expand) -->
<g id="node11" class="node">
<title>[root] aws_api_gateway_resource.cors_resource (expand)</title>
<polygon fill="none" stroke="black" points="1164,-180 852,-180 852,-144 1164,-144 1164,-180"/>
<text text-anchor="middle" x="1008" y="-158.3" font-family="Times,serif" font-size="14.00">aws_api_gateway_resource.cors_resource</text>
</g>
<!-- [root] aws_api_gateway_method.increment_visitors_method (expand)&#45;&gt;[root] aws_api_gateway_resource.cors_resource (expand) -->
<g id="edge9" class="edge">
<title>[root] aws_api_gateway_method.increment_visitors_method (expand)&#45;&gt;[root] aws_api_gateway_resource.cors_resource (expand)</title>
<path fill="none" stroke="black" d="M1513.44,-215.97C1410.57,-205.19 1277.93,-191.29 1174.33,-180.43"/>
<polygon fill="black" stroke="black" points="1174.4,-176.92 1164.08,-179.36 1173.67,-183.88 1174.4,-176.92"/>
</g>
<!-- [root] aws_api_gateway_method.options_method (expand)&#45;&gt;[root] aws_api_gateway_resource.cors_resource (expand) -->
<g id="edge10" class="edge">
<title>[root] aws_api_gateway_method.options_method (expand)&#45;&gt;[root] aws_api_gateway_resource.cors_resource (expand)</title>
<path fill="none" stroke="black" d="M801,-503.95C801,-477.29 801,-424.11 801,-379 801,-379 801,-379 801,-305 801,-240.7 869.75,-203.35 928.01,-183.25"/>
<polygon fill="black" stroke="black" points="929.25,-186.52 937.63,-180.05 927.04,-179.88 929.25,-186.52"/>
</g>
<!-- [root] aws_api_gateway_method_response.method_response_200 (expand)&#45;&gt;[root] aws_api_gateway_method.increment_visitors_method (expand) -->
<g id="edge11" class="edge">
<title>[root] aws_api_gateway_method_response.method_response_200 (expand)&#45;&gt;[root] aws_api_gateway_method.increment_visitors_method (expand)</title>
<path fill="none" stroke="black" d="M1795.35,-287.88C1773.75,-278.31 1746.65,-266.3 1723.73,-256.15"/>
<polygon fill="black" stroke="black" points="1725.09,-252.92 1714.53,-252.07 1722.25,-259.32 1725.09,-252.92"/>
</g>
<!-- [root] aws_api_gateway_method_response.options_200 (expand)&#45;&gt;[root] aws_api_gateway_method.options_method (expand) -->
<g id="edge12" class="edge">
<title>[root] aws_api_gateway_method_response.options_200 (expand)&#45;&gt;[root] aws_api_gateway_method.options_method (expand)</title>
<path fill="none" stroke="black" d="M737.76,-575.7C748.24,-566.97 761.11,-556.24 772.5,-546.75"/>
<polygon fill="black" stroke="black" points="775.03,-549.19 780.47,-540.1 770.55,-543.82 775.03,-549.19"/>
</g>
<!-- [root] aws_api_gateway_rest_api.visitorCounter (expand) -->
<g id="node12" class="node">
<title>[root] aws_api_gateway_rest_api.visitorCounter (expand)</title>
<polygon fill="none" stroke="black" points="1163.5,-108 852.5,-108 852.5,-72 1163.5,-72 1163.5,-108"/>
<text text-anchor="middle" x="1008" y="-86.3" font-family="Times,serif" font-size="14.00">aws_api_gateway_rest_api.visitorCounter</text>
</g>
<!-- [root] aws_api_gateway_resource.cors_resource (expand)&#45;&gt;[root] aws_api_gateway_rest_api.visitorCounter (expand) -->
<g id="edge13" class="edge">
<title>[root] aws_api_gateway_resource.cors_resource (expand)&#45;&gt;[root] aws_api_gateway_rest_api.visitorCounter (expand)</title>
<path fill="none" stroke="black" d="M1008,-143.7C1008,-135.98 1008,-126.71 1008,-118.11"/>
<polygon fill="black" stroke="black" points="1011.5,-118.1 1008,-108.1 1004.5,-118.1 1011.5,-118.1"/>
</g>
<!-- [root] aws_api_gateway_rest_api.visitorCounter (expand)&#45;&gt;[root] provider[&quot;registry.terraform.io/hashicorp/aws&quot;] -->
<g id="edge14" class="edge">
<title>[root] aws_api_gateway_rest_api.visitorCounter (expand)&#45;&gt;[root] provider[&quot;registry.terraform.io/hashicorp/aws&quot;]</title>
<path fill="none" stroke="black" d="M1111.67,-71.97C1183.47,-60.17 1278.01,-44.63 1346.11,-33.44"/>
<polygon fill="black" stroke="black" points="1347.08,-36.83 1356.39,-31.75 1345.95,-29.92 1347.08,-36.83"/>
</g>
<!-- [root] aws_api_gateway_stage.api_stage (expand) -->
<g id="node13" class="node">
<title>[root] aws_api_gateway_stage.api_stage (expand)</title>
<polygon fill="none" stroke="black" points="1642.5,-540 1385.5,-540 1385.5,-504 1642.5,-504 1642.5,-540"/>
<text text-anchor="middle" x="1514" y="-518.3" font-family="Times,serif" font-size="14.00">aws_api_gateway_stage.api_stage</text>
</g>
<!-- [root] aws_api_gateway_stage.api_stage (expand)&#45;&gt;[root] aws_api_gateway_deployment.visitor_api_deployment (expand) -->
<g id="edge15" class="edge">
<title>[root] aws_api_gateway_stage.api_stage (expand)&#45;&gt;[root] aws_api_gateway_deployment.visitor_api_deployment (expand)</title>
<path fill="none" stroke="black" d="M1514,-503.7C1514,-495.98 1514,-486.71 1514,-478.11"/>
<polygon fill="black" stroke="black" points="1517.5,-478.1 1514,-468.1 1510.5,-478.1 1517.5,-478.1"/>
</g>
<!-- [root] aws_api_gateway_usage_plan.incrementVisitor&#45;UsagePlan (expand) -->
<g id="node14" class="node">
<title>[root] aws_api_gateway_usage_plan.incrementVisitor&#45;UsagePlan (expand)</title>
<polygon fill="none" stroke="black" points="1729.5,-612 1298.5,-612 1298.5,-576 1729.5,-576 1729.5,-612"/>
<text text-anchor="middle" x="1514" y="-590.3" font-family="Times,serif" font-size="14.00">aws_api_gateway_usage_plan.incrementVisitor&#45;UsagePlan</text>
</g>
<!-- [root] aws_api_gateway_usage_plan.incrementVisitor&#45;UsagePlan (expand)&#45;&gt;[root] aws_api_gateway_stage.api_stage (expand) -->
<g id="edge16" class="edge">
<title>[root] aws_api_gateway_usage_plan.incrementVisitor&#45;UsagePlan (expand)&#45;&gt;[root] aws_api_gateway_stage.api_stage (expand)</title>
<path fill="none" stroke="black" d="M1514,-575.7C1514,-567.98 1514,-558.71 1514,-550.11"/>
<polygon fill="black" stroke="black" points="1517.5,-550.1 1514,-540.1 1510.5,-550.1 1517.5,-550.1"/>
</g>
<!-- [root] aws_api_gateway_usage_plan_key.main (expand) -->
<g id="node15" class="node">
<title>[root] aws_api_gateway_usage_plan_key.main (expand)</title>
<polygon fill="none" stroke="black" points="1661.5,-684 1366.5,-684 1366.5,-648 1661.5,-648 1661.5,-684"/>
<text text-anchor="middle" x="1514" y="-662.3" font-family="Times,serif" font-size="14.00">aws_api_gateway_usage_plan_key.main</text>
</g>
<!-- [root] aws_api_gateway_usage_plan_key.main (expand)&#45;&gt;[root] aws_api_gateway_api_key.visitor_api_key (expand) -->
<g id="edge17" class="edge">
<title>[root] aws_api_gateway_usage_plan_key.main (expand)&#45;&gt;[root] aws_api_gateway_api_key.visitor_api_key (expand)</title>
<path fill="none" stroke="black" d="M1647.71,-647.94C1678.86,-640.1 1710.84,-628.68 1738,-612 1824.76,-558.73 1892.28,-454.13 1920.55,-405.29"/>
<polygon fill="black" stroke="black" points="1923.77,-406.71 1925.68,-396.29 1917.69,-403.25 1923.77,-406.71"/>
</g>
<!-- [root] aws_api_gateway_usage_plan_key.main (expand)&#45;&gt;[root] aws_api_gateway_usage_plan.incrementVisitor&#45;UsagePlan (expand) -->
<g id="edge18" class="edge">
<title>[root] aws_api_gateway_usage_plan_key.main (expand)&#45;&gt;[root] aws_api_gateway_usage_plan.incrementVisitor&#45;UsagePlan (expand)</title>
<path fill="none" stroke="black" d="M1514,-647.7C1514,-639.98 1514,-630.71 1514,-622.11"/>
<polygon fill="black" stroke="black" points="1517.5,-622.1 1514,-612.1 1510.5,-622.1 1517.5,-622.1"/>
</g>
<!-- [root] aws_dynamodb_table.visitor_table (expand) -->
<g id="node16" class="node">
<title>[root] aws_dynamodb_table.visitor_table (expand)</title>
<polygon fill="none" stroke="black" points="457.5,-108 196.5,-108 196.5,-72 457.5,-72 457.5,-108"/>
<text text-anchor="middle" x="327" y="-86.3" font-family="Times,serif" font-size="14.00">aws_dynamodb_table.visitor_table</text>
</g>
<!-- [root] aws_dynamodb_table.visitor_table (expand)&#45;&gt;[root] provider[&quot;registry.terraform.io/hashicorp/aws&quot;] -->
<g id="edge19" class="edge">
<title>[root] aws_dynamodb_table.visitor_table (expand)&#45;&gt;[root] provider[&quot;registry.terraform.io/hashicorp/aws&quot;]</title>
<path fill="none" stroke="black" d="M457.51,-80.75C662.97,-67.76 1060.95,-42.59 1280.06,-28.73"/>
<polygon fill="black" stroke="black" points="1280.6,-32.21 1290.36,-28.08 1280.15,-25.22 1280.6,-32.21"/>
</g>
<!-- [root] aws_dynamodb_table_item.add_item_dynamodb (expand) -->
<g id="node17" class="node">
<title>[root] aws_dynamodb_table_item.add_item_dynamodb (expand)</title>
<polygon fill="none" stroke="black" points="358,-684 0,-684 0,-648 358,-648 358,-684"/>
<text text-anchor="middle" x="179" y="-662.3" font-family="Times,serif" font-size="14.00">aws_dynamodb_table_item.add_item_dynamodb</text>
</g>
<!-- [root] aws_dynamodb_table_item.add_item_dynamodb (expand)&#45;&gt;[root] aws_dynamodb_table.visitor_table (expand) -->
<g id="edge20" class="edge">
<title>[root] aws_dynamodb_table_item.add_item_dynamodb (expand)&#45;&gt;[root] aws_dynamodb_table.visitor_table (expand)</title>
<path fill="none" stroke="black" d="M209.09,-647.89C245.5,-624.7 302,-579.59 302,-523 302,-523 302,-523 302,-233 302,-192.6 311.94,-146.71 319.28,-118.3"/>
<polygon fill="black" stroke="black" points="322.75,-118.88 321.94,-108.32 315.98,-117.08 322.75,-118.88"/>
</g>
<!-- [root] aws_iam_policy.DynamoDBLambdaPolicy (expand) -->
<g id="node18" class="node">
<title>[root] aws_iam_policy.DynamoDBLambdaPolicy (expand)</title>
<polygon fill="none" stroke="black" points="2453,-612 2145,-612 2145,-576 2453,-576 2453,-612"/>
<text text-anchor="middle" x="2299" y="-590.3" font-family="Times,serif" font-size="14.00">aws_iam_policy.DynamoDBLambdaPolicy</text>
</g>
<!-- [root] data.template_file.dynamoDBlambdapolicy (expand) -->
<g id="node24" class="node">
<title>[root] data.template_file.dynamoDBlambdapolicy (expand)</title>
<polygon fill="none" stroke="black" points="2642,-540 2320,-540 2320,-504 2642,-504 2642,-540"/>
<text text-anchor="middle" x="2481" y="-518.3" font-family="Times,serif" font-size="14.00">data.template_file.dynamoDBlambdapolicy</text>
</g>
<!-- [root] aws_iam_policy.DynamoDBLambdaPolicy (expand)&#45;&gt;[root] data.template_file.dynamoDBlambdapolicy (expand) -->
<g id="edge21" class="edge">
<title>[root] aws_iam_policy.DynamoDBLambdaPolicy (expand)&#45;&gt;[root] data.template_file.dynamoDBlambdapolicy (expand)</title>
<path fill="none" stroke="black" d="M2343.52,-575.88C2368.73,-566.18 2400.45,-553.98 2427.07,-543.74"/>
<polygon fill="black" stroke="black" points="2428.55,-546.92 2436.62,-540.07 2426.03,-540.39 2428.55,-546.92"/>
</g>
<!-- [root] aws_iam_policy.DynamoDBLambdaPolicy (expand)&#45;&gt;[root] provider[&quot;registry.terraform.io/hashicorp/aws&quot;] -->
<g id="edge22" class="edge">
<title>[root] aws_iam_policy.DynamoDBLambdaPolicy (expand)&#45;&gt;[root] provider[&quot;registry.terraform.io/hashicorp/aws&quot;]</title>
<path fill="none" stroke="black" d="M2261.17,-575.9C2218.5,-553.72 2155,-510.69 2155,-451 2155,-451 2155,-451 2155,-161 2155,-64.62 1903.86,-32.54 1698.02,-22.44"/>
<polygon fill="black" stroke="black" points="1698.1,-18.94 1687.94,-21.96 1697.77,-25.93 1698.1,-18.94"/>
</g>
<!-- [root] aws_iam_role.DynamoDBLambdaRole (expand) -->
<g id="node19" class="node">
<title>[root] aws_iam_role.DynamoDBLambdaRole (expand)</title>
<polygon fill="none" stroke="black" points="1576.5,-180 1291.5,-180 1291.5,-144 1576.5,-144 1576.5,-180"/>
<text text-anchor="middle" x="1434" y="-158.3" font-family="Times,serif" font-size="14.00">aws_iam_role.DynamoDBLambdaRole</text>
</g>
<!-- [root] aws_iam_role.DynamoDBLambdaRole (expand)&#45;&gt;[root] provider[&quot;registry.terraform.io/hashicorp/aws&quot;] -->
<g id="edge23" class="edge">
<title>[root] aws_iam_role.DynamoDBLambdaRole (expand)&#45;&gt;[root] provider[&quot;registry.terraform.io/hashicorp/aws&quot;]</title>
<path fill="none" stroke="black" d="M1434,-143.87C1434,-119.67 1434,-75.21 1434,-46.39"/>
<polygon fill="black" stroke="black" points="1437.5,-46.19 1434,-36.19 1430.5,-46.19 1437.5,-46.19"/>
</g>
<!-- [root] aws_iam_role_policy_attachment.DynamoDBLambdaRolePolicy (expand) -->
<g id="node20" class="node">
<title>[root] aws_iam_role_policy_attachment.DynamoDBLambdaRolePolicy (expand)</title>
<polygon fill="none" stroke="black" points="2349,-684 1885,-684 1885,-648 2349,-648 2349,-684"/>
<text text-anchor="middle" x="2117" y="-662.3" font-family="Times,serif" font-size="14.00">aws_iam_role_policy_attachment.DynamoDBLambdaRolePolicy</text>
</g>
<!-- [root] aws_iam_role_policy_attachment.DynamoDBLambdaRolePolicy (expand)&#45;&gt;[root] aws_iam_policy.DynamoDBLambdaPolicy (expand) -->
<g id="edge24" class="edge">
<title>[root] aws_iam_role_policy_attachment.DynamoDBLambdaRolePolicy (expand)&#45;&gt;[root] aws_iam_policy.DynamoDBLambdaPolicy (expand)</title>
<path fill="none" stroke="black" d="M2161.52,-647.88C2186.73,-638.18 2218.45,-625.98 2245.07,-615.74"/>
<polygon fill="black" stroke="black" points="2246.55,-618.92 2254.62,-612.07 2244.03,-612.39 2246.55,-618.92"/>
</g>
<!-- [root] aws_iam_role_policy_attachment.DynamoDBLambdaRolePolicy (expand)&#45;&gt;[root] aws_iam_role.DynamoDBLambdaRole (expand) -->
<g id="edge25" class="edge">
<title>[root] aws_iam_role_policy_attachment.DynamoDBLambdaRolePolicy (expand)&#45;&gt;[root] aws_iam_role.DynamoDBLambdaRole (expand)</title>
<path fill="none" stroke="black" d="M2117,-647.95C2117,-621.29 2117,-568.11 2117,-523 2117,-523 2117,-523 2117,-377 2117,-330.03 2096.09,-318.07 2060,-288 1995.07,-233.89 1965.83,-237.14 1884,-216 1786.83,-190.9 1674.74,-177.65 1586.74,-170.68"/>
<polygon fill="black" stroke="black" points="1586.92,-167.18 1576.68,-169.9 1586.38,-174.16 1586.92,-167.18"/>
</g>
<!-- [root] aws_lambda_function.DynamoDBVisitorFunction (expand)&#45;&gt;[root] aws_iam_role.DynamoDBLambdaRole (expand) -->
<g id="edge26" class="edge">
<title>[root] aws_lambda_function.DynamoDBVisitorFunction (expand)&#45;&gt;[root] aws_iam_role.DynamoDBLambdaRole (expand)</title>
<path fill="none" stroke="black" d="M1315.41,-215.88C1336.87,-206.31 1363.8,-194.3 1386.57,-184.15"/>
<polygon fill="black" stroke="black" points="1388.01,-187.34 1395.72,-180.07 1385.16,-180.94 1388.01,-187.34"/>
</g>
<!-- [root] aws_lambda_permission.apigw&#45;visitCounter (expand) -->
<g id="node22" class="node">
<title>[root] aws_lambda_permission.apigw&#45;visitCounter (expand)</title>
<polygon fill="none" stroke="black" points="1157.5,-324 828.5,-324 828.5,-288 1157.5,-288 1157.5,-324"/>
<text text-anchor="middle" x="993" y="-302.3" font-family="Times,serif" font-size="14.00">aws_lambda_permission.apigw&#45;visitCounter</text>
</g>
<!-- [root] aws_lambda_permission.apigw&#45;visitCounter (expand)&#45;&gt;[root] aws_api_gateway_rest_api.visitorCounter (expand) -->
<g id="edge27" class="edge">
<title>[root] aws_lambda_permission.apigw&#45;visitCounter (expand)&#45;&gt;[root] aws_api_gateway_rest_api.visitorCounter (expand)</title>
<path fill="none" stroke="black" d="M955.18,-287.9C898.24,-259.76 801.36,-201.11 843,-144 853.08,-130.18 866.81,-119.88 882.09,-112.23"/>
<polygon fill="black" stroke="black" points="883.62,-115.38 891.24,-108.02 880.69,-109.02 883.62,-115.38"/>
</g>
<!-- [root] aws_lambda_permission.apigw&#45;visitCounter (expand)&#45;&gt;[root] aws_lambda_function.DynamoDBVisitorFunction (expand) -->
<g id="edge28" class="edge">
<title>[root] aws_lambda_permission.apigw&#45;visitCounter (expand)&#45;&gt;[root] aws_lambda_function.DynamoDBVisitorFunction (expand)</title>
<path fill="none" stroke="black" d="M1062.11,-287.97C1103.09,-277.87 1155.17,-265.03 1197.8,-254.52"/>
<polygon fill="black" stroke="black" points="1198.71,-257.9 1207.58,-252.11 1197.03,-251.11 1198.71,-257.9"/>
</g>
<!-- [root] data.archive_file.zip_the_python_code (expand) -->
<g id="node23" class="node">
<title>[root] data.archive_file.zip_the_python_code (expand)</title>
<polygon fill="none" stroke="black" points="3131.5,-684 2846.5,-684 2846.5,-648 3131.5,-648 3131.5,-684"/>
<text text-anchor="middle" x="2989" y="-662.3" font-family="Times,serif" font-size="14.00">data.archive_file.zip_the_python_code</text>
</g>
<!-- [root] provider[&quot;registry.terraform.io/hashicorp/archive&quot;] -->
<g id="node25" class="node">
<title>[root] provider[&quot;registry.terraform.io/hashicorp/archive&quot;]</title>
<polygon fill="none" stroke="black" points="2989,-612 2640.78,-594 2989,-576 3337.22,-594 2989,-612"/>
<text text-anchor="middle" x="2989" y="-590.3" font-family="Times,serif" font-size="14.00">provider[&quot;registry.terraform.io/hashicorp/archive&quot;]</text>
</g>
<!-- [root] data.archive_file.zip_the_python_code (expand)&#45;&gt;[root] provider[&quot;registry.terraform.io/hashicorp/archive&quot;] -->
<g id="edge29" class="edge">
<title>[root] data.archive_file.zip_the_python_code (expand)&#45;&gt;[root] provider[&quot;registry.terraform.io/hashicorp/archive&quot;]</title>
<path fill="none" stroke="black" d="M2989,-647.7C2989,-639.98 2989,-630.71 2989,-622.11"/>
<polygon fill="black" stroke="black" points="2992.5,-622.1 2989,-612.1 2985.5,-622.1 2992.5,-622.1"/>
</g>
<!-- [root] provider[&quot;registry.terraform.io/hashicorp/template&quot;] -->
<g id="node27" class="node">
<title>[root] provider[&quot;registry.terraform.io/hashicorp/template&quot;]</title>
<polygon fill="none" stroke="black" points="2541,-468 2182.56,-450 2541,-432 2899.44,-450 2541,-468"/>
<text text-anchor="middle" x="2541" y="-446.3" font-family="Times,serif" font-size="14.00">provider[&quot;registry.terraform.io/hashicorp/template&quot;]</text>
</g>
<!-- [root] data.template_file.dynamoDBlambdapolicy (expand)&#45;&gt;[root] provider[&quot;registry.terraform.io/hashicorp/template&quot;] -->
<g id="edge30" class="edge">
<title>[root] data.template_file.dynamoDBlambdapolicy (expand)&#45;&gt;[root] provider[&quot;registry.terraform.io/hashicorp/template&quot;]</title>
<path fill="none" stroke="black" d="M2495.83,-503.7C2503.13,-495.18 2512.06,-484.76 2520.04,-475.45"/>
<polygon fill="black" stroke="black" points="2522.9,-477.49 2526.75,-467.62 2517.59,-472.94 2522.9,-477.49"/>
</g>
<!-- [root] provider[&quot;registry.terraform.io/hashicorp/archive&quot;] (close) -->
<g id="node28" class="node">
<title>[root] provider[&quot;registry.terraform.io/hashicorp/archive&quot;] (close)</title>
<ellipse fill="none" stroke="black" cx="2989" cy="-738" rx="308.15" ry="18"/>
<text text-anchor="middle" x="2989" y="-734.3" font-family="Times,serif" font-size="14.00">[root] provider[&quot;registry.terraform.io/hashicorp/archive&quot;] (close)</text>
</g>
<!-- [root] provider[&quot;registry.terraform.io/hashicorp/archive&quot;] (close)&#45;&gt;[root] data.archive_file.zip_the_python_code (expand) -->
<g id="edge31" class="edge">
<title>[root] provider[&quot;registry.terraform.io/hashicorp/archive&quot;] (close)&#45;&gt;[root] data.archive_file.zip_the_python_code (expand)</title>
<path fill="none" stroke="black" d="M2989,-719.7C2989,-711.98 2989,-702.71 2989,-694.11"/>
<polygon fill="black" stroke="black" points="2992.5,-694.1 2989,-684.1 2985.5,-694.1 2992.5,-694.1"/>
</g>
<!-- [root] provider[&quot;registry.terraform.io/hashicorp/aws&quot;] (close) -->
<g id="node29" class="node">
<title>[root] provider[&quot;registry.terraform.io/hashicorp/aws&quot;] (close)</title>
<ellipse fill="none" stroke="black" cx="1304" cy="-738" rx="291.65" ry="18"/>
<text text-anchor="middle" x="1304" y="-734.3" font-family="Times,serif" font-size="14.00">[root] provider[&quot;registry.terraform.io/hashicorp/aws&quot;] (close)</text>
</g>
<!-- [root] provider[&quot;registry.terraform.io/hashicorp/aws&quot;] (close)&#45;&gt;[root] aws_api_gateway_integration.options_integration (expand) -->
<g id="edge32" class="edge">
<title>[root] provider[&quot;registry.terraform.io/hashicorp/aws&quot;] (close)&#45;&gt;[root] aws_api_gateway_integration.options_integration (expand)</title>
<path fill="none" stroke="black" d="M1252.98,-720.23C1222.87,-710.34 1184.54,-697.74 1152.73,-687.29"/>
<polygon fill="black" stroke="black" points="1153.68,-683.91 1143.08,-684.12 1151.49,-690.56 1153.68,-683.91"/>
</g>
<!-- [root] provider[&quot;registry.terraform.io/hashicorp/aws&quot;] (close)&#45;&gt;[root] aws_api_gateway_integration_response.options_integration_response (expand) -->
<g id="edge33" class="edge">
<title>[root] provider[&quot;registry.terraform.io/hashicorp/aws&quot;] (close)&#45;&gt;[root] aws_api_gateway_integration_response.options_integration_response (expand)</title>
<path fill="none" stroke="black" d="M1162.31,-722.24C1058.21,-711.4 916.19,-696.6 805.32,-685.05"/>
<polygon fill="black" stroke="black" points="805.68,-681.57 795.37,-684.02 804.96,-688.54 805.68,-681.57"/>
</g>
<!-- [root] provider[&quot;registry.terraform.io/hashicorp/aws&quot;] (close)&#45;&gt;[root] aws_api_gateway_usage_plan_key.main (expand) -->
<g id="edge34" class="edge">
<title>[root] provider[&quot;registry.terraform.io/hashicorp/aws&quot;] (close)&#45;&gt;[root] aws_api_gateway_usage_plan_key.main (expand)</title>
<path fill="none" stroke="black" d="M1354.3,-720.23C1383.99,-710.34 1421.78,-697.74 1453.14,-687.29"/>
<polygon fill="black" stroke="black" points="1454.27,-690.6 1462.65,-684.12 1452.06,-683.96 1454.27,-690.6"/>
</g>
<!-- [root] provider[&quot;registry.terraform.io/hashicorp/aws&quot;] (close)&#45;&gt;[root] aws_dynamodb_table_item.add_item_dynamodb (expand) -->
<g id="edge35" class="edge">
<title>[root] provider[&quot;registry.terraform.io/hashicorp/aws&quot;] (close)&#45;&gt;[root] aws_dynamodb_table_item.add_item_dynamodb (expand)</title>
<path fill="none" stroke="black" d="M1079.99,-726.45C892.58,-717.13 617.9,-702.29 368.1,-684.07"/>
<polygon fill="black" stroke="black" points="368.33,-680.57 358.1,-683.33 367.82,-687.56 368.33,-680.57"/>
</g>
<!-- [root] provider[&quot;registry.terraform.io/hashicorp/aws&quot;] (close)&#45;&gt;[root] aws_iam_role_policy_attachment.DynamoDBLambdaRolePolicy (expand) -->
<g id="edge36" class="edge">
<title>[root] provider[&quot;registry.terraform.io/hashicorp/aws&quot;] (close)&#45;&gt;[root] aws_iam_role_policy_attachment.DynamoDBLambdaRolePolicy (expand)</title>
<path fill="none" stroke="black" d="M1466.57,-723C1593.83,-712.05 1771.7,-696.73 1909.28,-684.89"/>
<polygon fill="black" stroke="black" points="1909.87,-688.35 1919.53,-684 1909.27,-681.37 1909.87,-688.35"/>
</g>
<!-- [root] provider[&quot;registry.terraform.io/hashicorp/aws&quot;] (close)&#45;&gt;[root] aws_lambda_permission.apigw&#45;visitCounter (expand) -->
<g id="edge37" class="edge">
<title>[root] provider[&quot;registry.terraform.io/hashicorp/aws&quot;] (close)&#45;&gt;[root] aws_lambda_permission.apigw&#45;visitCounter (expand)</title>
<path fill="none" stroke="black" d="M1302.61,-719.78C1300.56,-701.22 1295.62,-671.23 1284,-648 1215.34,-510.72 1079.76,-382.57 1021.12,-330.96"/>
<polygon fill="black" stroke="black" points="1023.2,-328.14 1013.37,-324.19 1018.6,-333.41 1023.2,-328.14"/>
</g>
<!-- [root] provider[&quot;registry.terraform.io/hashicorp/template&quot;] (close) -->
<g id="node30" class="node">
<title>[root] provider[&quot;registry.terraform.io/hashicorp/template&quot;] (close)</title>
<ellipse fill="none" stroke="black" cx="2348" cy="-738" rx="315.44" ry="18"/>
<text text-anchor="middle" x="2348" y="-734.3" font-family="Times,serif" font-size="14.00">[root] provider[&quot;registry.terraform.io/hashicorp/template&quot;] (close)</text>
</g>
<!-- [root] provider[&quot;registry.terraform.io/hashicorp/template&quot;] (close)&#45;&gt;[root] data.template_file.dynamoDBlambdapolicy (expand) -->
<g id="edge38" class="edge">
<title>[root] provider[&quot;registry.terraform.io/hashicorp/template&quot;] (close)&#45;&gt;[root] data.template_file.dynamoDBlambdapolicy (expand)</title>
<path fill="none" stroke="black" d="M2369.31,-719.97C2395.38,-697.91 2438.9,-656.93 2462,-612 2471.9,-592.74 2476.65,-568.58 2478.92,-550.3"/>
<polygon fill="black" stroke="black" points="2482.41,-550.61 2479.99,-540.29 2475.45,-549.86 2482.41,-550.61"/>
</g>
<!-- [root] root -->
<g id="node31" class="node">
<title>[root] root</title>
<ellipse fill="none" stroke="black" cx="2348" cy="-810" rx="58.49" ry="18"/>
<text text-anchor="middle" x="2348" y="-806.3" font-family="Times,serif" font-size="14.00">[root] root</text>
</g>
<!-- [root] root&#45;&gt;[root] provider[&quot;registry.terraform.io/hashicorp/archive&quot;] (close) -->
<g id="edge39" class="edge">
<title>[root] root&#45;&gt;[root] provider[&quot;registry.terraform.io/hashicorp/archive&quot;] (close)</title>
<path fill="none" stroke="black" d="M2402.1,-803.09C2497.89,-792.63 2700.45,-770.51 2840.59,-755.21"/>
<polygon fill="black" stroke="black" points="2841.01,-758.68 2850.57,-754.12 2840.25,-751.72 2841.01,-758.68"/>
</g>
<!-- [root] root&#45;&gt;[root] provider[&quot;registry.terraform.io/hashicorp/aws&quot;] (close) -->
<g id="edge40" class="edge">
<title>[root] root&#45;&gt;[root] provider[&quot;registry.terraform.io/hashicorp/aws&quot;] (close)</title>
<path fill="none" stroke="black" d="M2291.5,-805.21C2144.95,-795.39 1747.09,-768.71 1503.44,-752.37"/>
<polygon fill="black" stroke="black" points="1503.61,-748.88 1493.4,-751.7 1503.14,-755.86 1503.61,-748.88"/>
</g>
<!-- [root] root&#45;&gt;[root] provider[&quot;registry.terraform.io/hashicorp/template&quot;] (close) -->
<g id="edge41" class="edge">
<title>[root] root&#45;&gt;[root] provider[&quot;registry.terraform.io/hashicorp/template&quot;] (close)</title>
<path fill="none" stroke="black" d="M2348,-791.7C2348,-783.98 2348,-774.71 2348,-766.11"/>
<polygon fill="black" stroke="black" points="2351.5,-766.1 2348,-756.1 2344.5,-766.1 2351.5,-766.1"/>
</g>
</g>
</svg>
